<svg width="44" height="44" viewBox="0 0 44 44" fill="none" xmlns="http://www.w3.org/2000/svg">
<path d="M22.6896 32.7599L22.7941 32.3729L25.0938 31.7837V28.7264L22.7941 28.1379L22.6896 27.7508C22.4723 26.943 22.154 26.173 21.7436 25.4607L21.5428 25.1129L22.7521 23.0724L20.5893 20.9095L18.5487 22.1188L18.2009 21.918C17.4886 21.5076 16.7186 21.1893 15.9108 20.972L15.5238 20.8675L14.9353 18.5679H11.8779L11.2894 20.8675L10.9024 20.972C10.0946 21.1893 9.32456 21.5076 8.61231 21.918L8.26444 22.1188L6.22394 20.9095L4.06106 23.0724L5.27038 25.1129L5.06963 25.4607C4.65919 26.173 4.34088 26.943 4.12363 27.7508L4.01913 28.1379L1.71875 28.7264V31.7837L4.01844 32.3722L4.12294 32.7592C4.34019 33.567 4.6585 34.337 5.06894 35.0493L5.26969 35.3972L4.06038 37.4377L6.22325 39.6005L8.26375 38.3912L8.61163 38.592C9.32387 39.0024 10.0939 39.3207 10.9017 39.538L11.2887 39.6425L11.8772 41.9422H14.9346L15.5231 39.6425L15.9101 39.538C16.7179 39.3207 17.4879 39.0024 18.2002 38.592L18.5481 38.3912L20.5886 39.6005L22.7514 37.4377L21.5421 35.3972L21.7429 35.0493C22.154 34.3377 22.4723 33.5677 22.6896 32.7599ZM13.4062 38.5047C8.85706 38.5047 5.15625 34.8039 5.15625 30.2547C5.15625 25.7055 8.85706 22.0047 13.4062 22.0047C17.9554 22.0047 21.6562 25.7055 21.6562 30.2547C21.6562 34.8039 17.9554 38.5047 13.4062 38.5047Z" fill="#FE5800"/>
<path d="M13.4062 23.3797C9.61538 23.3797 6.53125 26.4638 6.53125 30.2547C6.53125 34.0455 9.61538 37.1297 13.4062 37.1297C17.1971 37.1297 20.2812 34.0455 20.2812 30.2547C20.2812 26.4638 17.1971 23.3797 13.4062 23.3797ZM13.4062 34.3797C11.1313 34.3797 9.28125 32.5296 9.28125 30.2547C9.28125 27.9797 11.1313 26.1297 13.4062 26.1297C15.6812 26.1297 17.5312 27.9797 17.5312 30.2547C17.5312 32.5296 15.6812 34.3797 13.4062 34.3797Z" fill="#FE5800"/>
<path d="M13.4062 33.0047C14.925 33.0047 16.1562 31.7735 16.1562 30.2547C16.1562 28.7359 14.925 27.5047 13.4062 27.5047C11.8875 27.5047 10.6562 28.7359 10.6562 30.2547C10.6562 31.7735 11.8875 33.0047 13.4062 33.0047Z" fill="#FE5800"/>
<path d="M32.9642 21.3405C34.058 20.0288 34.7187 18.343 34.7187 16.5047C34.7187 14.6663 34.058 12.9812 32.9642 11.6688L29.0124 15.6205C29.141 15.89 29.2187 16.1877 29.2187 16.5047C29.2187 16.8216 29.141 17.1193 29.0117 17.3881L32.9642 21.3405Z" fill="#FE5800"/>
<path d="M27.1562 17.1922C27.5359 17.1922 27.8438 16.8844 27.8438 16.5047C27.8438 16.125 27.5359 15.8172 27.1562 15.8172C26.7766 15.8172 26.4688 16.125 26.4688 16.5047C26.4688 16.8844 26.7766 17.1922 27.1562 17.1922Z" fill="#FE5800"/>
<path d="M22.3203 10.6967L26.2721 14.6484C26.5409 14.5199 26.8386 14.4415 27.1555 14.4415C27.4724 14.4415 27.7701 14.5192 28.0389 14.6484L31.9907 10.6967C30.6789 9.60217 28.9932 8.94217 27.1548 8.94217C25.3164 8.94217 23.6327 9.60286 22.3203 10.6967Z" fill="#FE5800"/>
<path d="M40.0531 14.4243L39.9774 14.029C39.6412 12.2779 38.9675 10.6479 37.9754 9.18485L37.7499 8.85142L38.4739 7.40423L36.2581 5.18842L34.8109 5.91236L34.4774 5.68686C33.0144 4.69479 31.3844 4.02104 29.6333 3.68485L29.238 3.60923L28.7244 2.06854H25.5901L25.0766 3.60923L24.6813 3.68485C22.9302 4.02104 21.3001 4.69479 19.8371 5.68686L19.5037 5.91236L18.0565 5.18842L15.8407 7.40423L16.5646 8.85142L16.3391 9.18485C15.3471 10.6479 14.6733 12.2779 14.3371 14.029L14.2615 14.4243L12.7188 14.9379V17.1922H16.0022L16.6588 19.7559C17.3085 19.9566 17.9362 20.2165 18.5316 20.53L20.8072 19.1818L22.1568 20.5314L25.3007 17.3874C25.1714 17.12 25.0938 16.8223 25.0938 16.5047C25.0938 16.187 25.1714 15.89 25.3007 15.6212L21.3489 11.6695C20.2544 12.9812 19.5938 14.667 19.5938 16.5047C19.5938 17.1571 19.6769 17.804 19.8399 18.4276L18.5103 18.7769C18.3171 18.0399 18.2188 17.2747 18.2188 16.5047C18.2188 11.5767 22.2282 7.56717 27.1562 7.56717C32.0842 7.56717 36.0938 11.5767 36.0938 16.5047C36.0938 21.4327 32.0842 25.4422 27.1562 25.4422C26.4234 25.4422 25.6926 25.3528 24.9858 25.1768L25.3172 23.8424C25.916 23.9915 26.5347 24.0672 27.1562 24.0672C28.9939 24.0672 30.6797 23.4065 31.9921 22.3127L28.0404 18.3609C27.7716 18.4895 27.4739 18.5679 27.1569 18.5679C26.84 18.5679 26.5423 18.4902 26.2735 18.3609L23.1296 21.5049L24.4791 22.8544L23.1309 25.13C23.4444 25.7247 23.7043 26.3524 23.9051 27.0028L26.4688 27.6587V30.9422H28.7231L29.2366 29.4015L29.6319 29.3259C31.383 28.9897 33.0131 28.3159 34.4761 27.3239L34.8095 27.0984L36.2567 27.8223L38.4725 25.6058L37.7486 24.1593L37.9741 23.8259C38.9661 22.3629 39.6399 20.7328 39.9761 18.9817L40.0517 18.5864L41.5938 18.0722V14.9379L40.0531 14.4243ZM27.8829 28.1702L27.7984 26.7979C33.2207 26.4652 37.4688 21.9435 37.4688 16.5047C37.4688 10.8184 32.8426 6.19217 27.1562 6.19217C21.7339 6.19217 17.2136 10.4258 16.8651 15.8316L15.4928 15.7429C15.8874 9.6166 21.0114 4.81717 27.1562 4.81717C33.6009 4.81717 38.8438 10.06 38.8438 16.5047C38.8438 22.6688 34.0292 27.7927 27.8829 28.1702Z" fill="#FE5800"/>
<path d="M41.5938 40.5672H40.2188V41.9422H41.5938V40.5672Z" fill="#FE5800"/>
<path d="M30.1909 39.1922H23.7188V40.5672H29.6216L30.9966 41.9422H38.8438V40.5672H31.5659L30.1909 39.1922Z" fill="#FE5800"/>
<path d="M38.8438 36.4422H37.4688V37.8172H38.8438V36.4422Z" fill="#FE5800"/>
<path d="M23.7188 36.4422H29.6216L30.9966 37.8172H36.0938V36.4422H31.5659L30.1909 35.0672H23.7188V36.4422Z" fill="#FE5800"/>
<path d="M3.09375 2.75467H1.71875V4.12967H3.09375V2.75467Z" fill="#FE5800"/>
<path d="M10.3716 5.50467H15.4688V4.12967H10.9409L9.56587 2.75467H4.46875V4.12967H8.99663L10.3716 5.50467Z" fill="#FE5800"/>
<path d="M5.84375 6.87967H4.46875V8.25467H5.84375V6.87967Z" fill="#FE5800"/>
<path d="M7.21875 6.87967V8.25467H9.68413L11.0591 9.62967H14.0938V8.25467H11.6284L10.2534 6.87967H7.21875Z" fill="#FE5800"/>
</svg>
