<svg width="44" height="44" viewBox="0 0 44 44" fill="none" xmlns="http://www.w3.org/2000/svg">
<path d="M23.1775 21.5102L19.74 18.0727C19.4736 17.8062 19.0354 17.8062 18.7689 18.0727C18.64 18.2016 18.5713 18.3734 18.5713 18.5625V19.9375H14.4463C14.0682 19.9375 13.7588 20.2469 13.7588 20.625V23.375C13.7588 23.7531 14.0682 24.0625 14.4463 24.0625H18.5713V25.4375C18.5713 25.8156 18.8807 26.125 19.2588 26.125C19.4393 26.125 19.6197 26.0562 19.7486 25.9273L23.1861 22.4898C23.4439 22.2148 23.4439 21.7852 23.1775 21.5102Z" fill="#FE5800"/>
<path d="M40.3477 22.4984L35.7587 20.2039C35.8016 19.1727 36.1024 18.1672 36.6352 17.282L36.7383 17.1102C37.443 15.9328 37.8126 14.5922 37.8126 13.2172V8.64531C38.268 7.90625 38.5001 7.05547 38.5001 6.1875C38.5001 5.80937 38.1907 5.5 37.8126 5.5H32.8798C30.2844 5.5 28.1876 7.60547 28.1876 10.1922V13.2172C28.1876 14.5836 28.5571 15.9328 29.2618 17.1102L29.3649 17.282C29.8977 18.1672 30.1985 19.1727 30.2415 20.2039L25.6524 22.4984C24.2516 23.1945 23.3665 24.6211 23.3751 26.1852V28.1875H24.7501V26.1852C24.7501 25.1453 25.3344 24.1914 26.2712 23.7273L30.8001 21.4586L31.5391 22.1977C32.3469 23.0055 33.6532 23.0055 34.4524 22.1977L35.1915 21.4586L39.7204 23.7273C40.6571 24.1914 41.2415 25.1453 41.2415 26.1852V28.1875H42.6165V26.1852C42.6337 24.6211 41.7485 23.1945 40.3477 22.4984ZM35.4493 16.5773C34.7704 17.7117 34.3922 19.0094 34.3751 20.3414L33.4899 21.2266C33.2235 21.493 32.7852 21.493 32.5188 21.2266L31.6251 20.3414C31.5993 19.018 31.2297 17.7203 30.5508 16.5773L30.4477 16.4055C29.8719 15.443 29.5626 14.343 29.5626 13.2258V11.593L34.5212 10.8281C35.2087 10.725 35.8618 10.4672 36.4376 10.0805V13.2172C36.4376 14.3344 36.1368 15.443 35.5524 16.3969L35.4493 16.5773Z" fill="#FE5800"/>
<path d="M38.9209 28.2305L36.3428 23.7188L35.1483 24.3977L37.3139 28.1789H28.6858L30.8514 24.3977L29.6569 23.7188L27.0787 28.2305C25.9615 28.4625 25.2483 29.5539 25.4803 30.6711C25.5748 31.1094 25.8069 31.5133 26.1506 31.8055L27.2764 36.8844C27.4826 37.8297 28.3248 38.5 29.2873 38.5H36.7037C37.6748 38.5086 38.5084 37.8297 38.7147 36.8844L39.8405 31.8055C40.6998 31.0578 40.7944 29.7602 40.0467 28.9008C39.7631 28.557 39.3678 28.325 38.9209 28.2305ZM27.6717 32.3125H30.3272L30.5592 34.375H28.1358L27.6717 32.3125ZM29.2873 37.125C28.9608 37.125 28.6858 36.9016 28.617 36.5836L28.428 35.75H30.6967L30.8514 37.125H29.2873ZM34.4436 37.125H32.235L32.0803 35.75H34.5897L34.4436 37.125ZM34.753 34.375H31.9342L31.7022 32.3125H34.9764L34.753 34.375ZM37.3826 36.5836C37.3139 36.9016 37.0303 37.125 36.7123 37.125H35.8358L35.9905 35.75H37.5717L37.3826 36.5836ZM37.8725 34.375H36.1365L36.3686 32.3125H38.328L37.8725 34.375Z" fill="#FE5800"/>
<path d="M20.625 36.4375C20.625 36.8156 20.3156 37.125 19.9375 37.125H3.4375C3.05938 37.125 2.75 36.8156 2.75 36.4375V23.375C2.75 22.9969 3.05938 22.6875 3.4375 22.6875H12.375V20.625C12.375 19.482 13.2945 18.5625 14.4375 18.5625H17.1875C17.1875 17.4195 18.107 16.5 19.25 16.5C19.8 16.5 20.3242 16.7148 20.7109 17.1016L22 18.3906V7.5625C22 6.42813 21.0719 5.5 19.9375 5.5H17.875V11.6875H14.4375V5.5H3.4375C2.30313 5.5 1.375 6.42813 1.375 7.5625V20.625C1.375 21.132 1.56406 21.6219 1.89922 22C1.55547 22.3781 1.375 22.868 1.375 23.375V36.4375C1.375 37.5719 2.30313 38.5 3.4375 38.5H19.9375C21.0719 38.5 22 37.5719 22 36.4375V26.8125H20.625V36.4375Z" fill="#FE5800"/>
<path d="M16.1307 27.6547C16.2939 27.3797 16.2596 27.0359 16.0275 26.8125L15.1338 25.9187C14.9104 25.6953 14.558 25.6523 14.2916 25.8156L13.6729 26.1937C13.5096 26.2969 13.2947 26.2453 13.2002 26.082C13.183 26.0477 13.1658 26.0133 13.1572 25.9789L12.9939 25.2828C12.9166 24.9734 12.6416 24.7586 12.3236 24.7586H11.0604C10.7424 24.7586 10.4674 24.9734 10.39 25.2828L10.2268 25.9789C10.1838 26.168 9.99473 26.2797 9.81426 26.2367C9.77988 26.2281 9.74551 26.2109 9.71113 26.1937L9.09238 25.8156C8.81738 25.6523 8.47363 25.6867 8.2502 25.9187L7.35645 26.8125C7.13301 27.0359 7.09004 27.3883 7.25332 27.6547L7.63145 28.2734C7.73457 28.4367 7.68301 28.6516 7.51973 28.7461C7.48535 28.7633 7.45098 28.7805 7.4166 28.7891L6.72051 28.9523C6.41113 29.0297 6.19629 29.3047 6.19629 29.6227V30.8859C6.19629 31.2039 6.41113 31.4789 6.72051 31.5562L7.4166 31.7195C7.60566 31.7625 7.71738 31.9516 7.67441 32.132C7.66582 32.1664 7.64863 32.2008 7.63145 32.2352L7.25332 32.8539C7.09004 33.1289 7.12441 33.4727 7.35645 33.6961L8.2502 34.5898C8.47363 34.8133 8.82598 34.8562 9.09238 34.693L9.71113 34.3148C9.87441 34.2117 10.0893 34.2633 10.1838 34.4266C10.201 34.4609 10.2182 34.4953 10.2268 34.5297L10.39 35.2258C10.4674 35.5352 10.7424 35.75 11.0604 35.75H12.3236C12.6416 35.75 12.9166 35.5352 12.9939 35.2258L13.1572 34.5297C13.2002 34.3406 13.3893 34.2289 13.5697 34.2719C13.6041 34.2805 13.6385 34.2977 13.6729 34.3148L14.2916 34.693C14.5666 34.8562 14.9104 34.8219 15.1338 34.5898L16.0275 33.6961C16.251 33.4727 16.2939 33.1203 16.1307 32.8539L15.7525 32.2352C15.6494 32.0719 15.701 31.857 15.8643 31.7625C15.8986 31.7453 15.933 31.7281 15.9674 31.7195L16.6635 31.5562C16.9729 31.4789 17.1877 31.2039 17.1877 30.8859V29.6227C17.1877 29.3047 16.9729 29.0297 16.6635 28.9523L15.9674 28.7891C15.7783 28.7461 15.6666 28.557 15.7096 28.3766C15.7182 28.3422 15.7354 28.3078 15.7525 28.2734L16.1307 27.6547ZM11.6877 31.625C10.9314 31.625 10.3127 31.0062 10.3127 30.25C10.3127 29.4937 10.9314 28.875 11.6877 28.875C12.4439 28.875 13.0627 29.4937 13.0627 30.25C13.0627 31.0062 12.4439 31.625 11.6877 31.625Z" fill="#FE5800"/>
</svg>
