<svg width="44" height="44" viewBox="0 0 44 44" fill="none" xmlns="http://www.w3.org/2000/svg">
<path d="M21.8999 4.4C12.2751 4.4 4.3999 12.2752 4.3999 21.9C4.3999 31.5248 12.2751 39.4 21.8999 39.4C31.5247 39.4 39.3999 31.5248 39.3999 21.9C39.3999 12.2752 31.5247 4.4 21.8999 4.4ZM21.8999 34.4C15.0247 34.4 9.3999 28.7752 9.3999 21.9C9.3999 15.0248 15.0247 9.4 21.8999 9.4C28.7751 9.4 34.3999 15.0248 34.3999 21.9C34.3999 28.7752 28.7751 34.4 21.8999 34.4Z" fill="#FE5800"/>
<path d="M27.0002 20.4273L23.1001 20.22L25.8 13.4827C25.9 13.2754 25.8 13.1717 25.7 13.0681C25.6 12.9644 25.4 12.9644 25.3 13.1717L16.6 22.7079C16.5 22.8115 16.5 22.9152 16.5 23.1225C16.5 23.2261 16.7 23.3298 16.8 23.3298L21.1001 23.7444L18.4001 30.4817C18.3001 30.689 18.4001 30.7927 18.5001 30.8963C18.6001 30.8963 18.6001 31 18.7001 31C18.8001 31 18.9001 31 19.0001 30.8963L27.4 21.1529C27.5 21.0492 27.5 20.9456 27.5 20.7383C27.3 20.531 27.2002 20.4273 27.0002 20.4273Z" fill="#FE5800"/>
</svg>
