<svg width="44" height="44" viewBox="0 0 44 44" fill="none" xmlns="http://www.w3.org/2000/svg">
<path d="M26.7812 26.9736V21.3188H19.9204L15.3468 14.2908H2V20.5704L7.9876 26.9736H26.7812Z" fill="#FE5800"/>
<path d="M37.9671 16.0376H28.5703V26.9736H35.9719L39.1313 31.3816H42V24.5628L37.9672 16.0392L37.9671 16.0376ZM33.1843 23.9796H30.2734V17.8672H33.1843V23.9796ZM34.1 23.9796V17.8672H37.0109L39.7968 23.9796H34.1Z" fill="#FE5800"/>
<path d="M33.705 28.3452H9.08944C7.6082 28.3452 6.4082 29.5452 6.4082 31.0265C6.4082 32.5077 7.6082 33.7077 9.08944 33.7077H33.705C35.1863 33.7077 36.3863 32.5077 36.3863 31.0265C36.3863 29.5452 35.1863 28.3452 33.705 28.3452ZM9.52704 32.0452C8.96456 32.0452 8.50828 31.589 8.50828 31.0265C8.50828 30.4639 8.96452 30.0077 9.52704 30.0077C10.0896 30.0077 10.5458 30.4639 10.5458 31.0265C10.5458 31.589 10.0896 32.0452 9.52704 32.0452ZM12.9395 32.0452C12.377 32.0452 11.9208 31.589 11.9208 31.0265C11.9208 30.4639 12.377 30.0077 12.9395 30.0077C13.502 30.0077 13.9583 30.4639 13.9583 31.0265C13.9583 31.589 13.502 32.0452 12.9395 32.0452ZM16.3536 32.0452C15.7911 32.0452 15.3348 31.589 15.3348 31.0265C15.3348 30.4639 15.7911 30.0077 16.3536 30.0077C16.9161 30.0077 17.3724 30.4639 17.3724 31.0265C17.3724 31.589 16.9161 32.0452 16.3536 32.0452ZM19.7661 32.0452C19.2036 32.0452 18.7473 31.589 18.7473 31.0265C18.7473 30.4639 19.2036 30.0077 19.7661 30.0077C20.3286 30.0077 20.7848 30.4639 20.7848 31.0265C20.7848 31.589 20.3286 32.0452 19.7661 32.0452ZM23.1802 32.0452C22.6177 32.0452 22.1614 31.589 22.1614 31.0265C22.1614 30.4639 22.6176 30.0077 23.1802 30.0077C23.7427 30.0077 24.1989 30.4639 24.1989 31.0265C24.1989 31.589 23.7427 32.0452 23.1802 32.0452ZM26.5926 32.0452C26.0302 32.0452 25.5739 31.589 25.5739 31.0265C25.5739 30.4639 26.0301 30.0077 26.5926 30.0077C27.1552 30.0077 27.6114 30.4639 27.6114 31.0265C27.6114 31.589 27.1552 32.0452 26.5926 32.0452ZM30.0067 32.0452C29.4442 32.0452 28.988 31.589 28.988 31.0265C28.988 30.4639 29.4442 30.0077 30.0067 30.0077C30.5692 30.0077 31.0255 30.4639 31.0255 31.0265C31.0255 31.589 30.5692 32.0452 30.0067 32.0452ZM33.4192 32.0452C32.8567 32.0452 32.4004 31.589 32.4004 31.0265C32.4004 30.4639 32.8567 30.0077 33.4192 30.0077C33.9817 30.0077 34.438 30.4639 34.438 31.0265C34.438 31.589 33.9817 32.0452 33.4192 32.0452Z" fill="#FE5800"/>
</svg>
