<svg width="63" height="59" viewBox="0 0 63 59" fill="none" xmlns="http://www.w3.org/2000/svg">
<path d="M2.56497 31.3905C-4.12105 21.9152 7.33337 13.0005 13.8451 9.7532C14.204 9.57422 15.896 8.77901 22.664 5.65135C29.143 2.65728 39.6525 0.951319 44.1987 0.677866C58.5142 -0.634726 62.0247 7.68519 61.9905 12.0092C62.4827 25.5863 49.0697 44.9778 42.5067 51.387C29.4321 66.0511 22.1 53.5405 14.768 45.7469L8.4101 38.6712L5.53881 35.4923L2.56497 31.3905Z" fill="white" stroke="white" stroke-width="1.0773"/>
<path d="M32.2217 19.3242H21.716C20.9908 19.3242 20.4028 19.9122 20.4028 20.6374V40.0729C20.4028 40.7982 20.9908 41.3862 21.716 41.3862H32.2217C32.947 41.3862 33.5349 40.7982 33.5349 40.0729V20.6374C33.5349 19.9122 32.947 19.3242 32.2217 19.3242Z" fill="#FFB289"/>
<path d="M30.909 21.9492H23.0298V23.5251H30.909V21.9492Z" stroke="#FE5800" stroke-width="0.364781"/>
<path d="M23.0298 33.7715H30.909M23.0298 35.0847H30.909M23.0298 36.3979H30.909M23.0298 37.7111H30.909" stroke="#FE5800" stroke-width="0.364781"/>
<path d="M24.3426 31.9313C24.7778 31.9313 25.1305 31.5786 25.1305 31.1434C25.1305 30.7082 24.7778 30.3555 24.3426 30.3555C23.9075 30.3555 23.5547 30.7082 23.5547 31.1434C23.5547 31.5786 23.9075 31.9313 24.3426 31.9313Z" fill="#FE5800"/>
<path d="M33.5362 39.5488V40.862C33.5362 40.862 32.7483 40.862 32.4857 40.862C31.9604 40.862 31.6978 41.65 31.6978 41.65C31.9604 41.65 38.5264 41.65 38.7891 41.65C38.7891 41.65 38.5264 40.862 38.0012 40.862C37.7385 40.862 36.9506 40.862 36.9506 40.862V39.5488" fill="#222222"/>
<path d="M33.5362 39.5488V40.862C33.5362 40.862 32.7483 40.862 32.4857 40.862C31.9604 40.862 31.6978 41.65 31.6978 41.65C31.9604 41.65 38.5264 41.65 38.7891 41.65C38.7891 41.65 38.5264 40.862 38.0012 40.862C37.7385 40.862 36.9506 40.862 36.9506 40.862V39.5488" stroke="#222222" stroke-width="0.729561"/>
<path d="M28.0195 38.4961C28.0195 36.395 28.0195 31.9301 28.0195 30.3542C28.0195 29.8289 28.0195 29.041 28.8075 29.041C30.3833 29.041 40.6264 29.041 41.4143 29.041C42.2022 29.041 42.2022 29.8289 42.2022 30.8795C42.2022 32.4554 42.2022 37.7082 42.2022 38.4961C42.2022 38.7588 42.2022 39.2841 40.889 39.2841C40.1011 39.2841 29.5954 39.2841 28.8075 39.2841C28.0195 39.2841 28.0195 38.4961 28.0195 38.4961Z" stroke="#FE5800" stroke-width="2.18868"/>
<path d="M28.5459 29.5664H41.678V38.7589H28.5459V29.5664Z" fill="#FFAB7F" stroke="#CCCCCC" stroke-width="0.729561"/>
</svg>
