<svg width="44" height="44" viewBox="0 0 44 44" fill="none" xmlns="http://www.w3.org/2000/svg">
<g clip-path="url(#clip0_1019_7249)">
<path d="M38.5 33H37.125V24.0625C37.125 23.8802 37.0526 23.7053 36.9236 23.5764C36.7947 23.4474 36.6198 23.375 36.4375 23.375H35.0625V3.4375C35.0625 3.25516 34.9901 3.0803 34.8611 2.95136C34.7322 2.82243 34.5573 2.75 34.375 2.75H12.375C12.1927 2.75 12.0178 2.82243 11.8889 2.95136C11.7599 3.0803 11.6875 3.25516 11.6875 3.4375V7.5625C11.6875 7.74484 11.7599 7.9197 11.8889 8.04864C12.0178 8.17757 12.1927 8.25 12.375 8.25H15.8125V11.7851C15.2851 11.9226 14.8107 12.2141 14.4498 12.6225C14.0889 13.0309 13.8579 13.5376 13.7864 14.0779L10.5703 16.6506C10.4898 16.715 10.4249 16.7967 10.3802 16.8897C10.3356 16.9826 10.3125 17.0844 10.3125 17.1875V19.9375C10.3125 20.1198 10.3849 20.2947 10.5139 20.4236C10.6428 20.5526 10.8177 20.625 11 20.625C11.1823 20.625 11.3572 20.5526 11.4861 20.4236C11.6151 20.2947 11.6875 20.1198 11.6875 19.9375V17.5175L14.0374 15.6379C14.2601 16.102 14.6094 16.4938 15.0451 16.768C15.4809 17.0422 15.9852 17.1877 16.5 17.1877C17.0148 17.1877 17.5191 17.0422 17.9549 16.768C18.3906 16.4938 18.7399 16.102 18.9626 15.6379L21.3125 17.5175V19.9375C21.3125 20.1198 21.3849 20.2947 21.5139 20.4236C21.6428 20.5526 21.8177 20.625 22 20.625C22.1823 20.625 22.3572 20.5526 22.4861 20.4236C22.6151 20.2947 22.6875 20.1198 22.6875 19.9375V17.1875C22.6875 17.0844 22.6644 16.9826 22.6198 16.8897C22.5751 16.7967 22.5102 16.715 22.4297 16.6506L19.2136 14.0779C19.1421 13.5376 18.9111 13.0309 18.5502 12.6225C18.1893 12.2141 17.7149 11.9226 17.1875 11.7851V8.25H29.5625V23.375H24.0625C23.8802 23.375 23.7053 23.4474 23.5764 23.5764C23.4474 23.7053 23.375 23.8802 23.375 24.0625V33H20.625V24.0625C20.625 23.8802 20.5526 23.7053 20.4236 23.5764C20.2947 23.4474 20.1198 23.375 19.9375 23.375H7.5625C7.38016 23.375 7.2053 23.4474 7.07636 23.5764C6.94743 23.7053 6.875 23.8802 6.875 24.0625V33H5.5C4.40598 33 3.35677 33.4346 2.58318 34.2082C1.8096 34.9818 1.375 36.031 1.375 37.125C1.375 38.219 1.8096 39.2682 2.58318 40.0418C3.35677 40.8154 4.40598 41.25 5.5 41.25H38.5C39.594 41.25 40.6432 40.8154 41.4168 40.0418C42.1904 39.2682 42.625 38.219 42.625 37.125C42.625 36.031 42.1904 34.9818 41.4168 34.2082C40.6432 33.4346 39.594 33 38.5 33ZM17.875 14.4375C17.875 14.7094 17.7944 14.9753 17.6433 15.2014C17.4922 15.4275 17.2774 15.6038 17.0262 15.7078C16.7749 15.8119 16.4985 15.8391 16.2318 15.7861C15.965 15.733 15.72 15.6021 15.5277 15.4098C15.3354 15.2175 15.2045 14.9725 15.1514 14.7057C15.0984 14.439 15.1256 14.1626 15.2297 13.9113C15.3337 13.6601 15.51 13.4453 15.7361 13.2942C15.9622 13.1431 16.2281 13.0625 16.5 13.0625C16.8647 13.0625 17.2144 13.2074 17.4723 13.4652C17.7301 13.7231 17.875 14.0728 17.875 14.4375ZM33.6875 6.875H18.5625V4.125H33.6875V6.875ZM13.0625 4.125H14.4375V6.875H13.0625V4.125ZM15.8125 6.875V4.125H17.1875V6.875H15.8125ZM30.9375 8.25H33.6875V23.375H30.9375V8.25ZM31.625 24.75V27.5H28.875V24.75H31.625ZM24.75 24.75H27.5V28.1875C27.5 28.3698 27.5724 28.5447 27.7014 28.6736C27.8303 28.8026 28.0052 28.875 28.1875 28.875H32.3125C32.4948 28.875 32.6697 28.8026 32.7986 28.6736C32.9276 28.5447 33 28.3698 33 28.1875V24.75H35.75V33H24.75V24.75ZM15.125 24.75V27.5H12.375V24.75H15.125ZM8.25 24.75H11V28.1875C11 28.3698 11.0724 28.5447 11.2014 28.6736C11.3303 28.8026 11.5052 28.875 11.6875 28.875H15.8125C15.9948 28.875 16.1697 28.8026 16.2986 28.6736C16.4276 28.5447 16.5 28.3698 16.5 28.1875V24.75H19.25V33H8.25V24.75ZM38.5 39.875H5.5C4.77065 39.875 4.07118 39.5853 3.55546 39.0695C3.03973 38.5538 2.75 37.8543 2.75 37.125C2.75 36.3957 3.03973 35.6962 3.55546 35.1805C4.07118 34.6647 4.77065 34.375 5.5 34.375H38.5C39.2293 34.375 39.9288 34.6647 40.4445 35.1805C40.9603 35.6962 41.25 36.3957 41.25 37.125C41.25 37.8543 40.9603 38.5538 40.4445 39.0695C39.9288 39.5853 39.2293 39.875 38.5 39.875Z" fill="#FE5800"/>
<path d="M5.5 35.0625C5.09208 35.0625 4.69331 35.1835 4.35414 35.4101C4.01496 35.6367 3.75061 35.9588 3.5945 36.3357C3.43839 36.7126 3.39755 37.1273 3.47713 37.5274C3.55671 37.9275 3.75315 38.295 4.04159 38.5834C4.33004 38.8719 4.69754 39.0683 5.09763 39.1479C5.49771 39.2275 5.91241 39.1866 6.28929 39.0305C6.66616 38.8744 6.98828 38.61 7.21491 38.2709C7.44154 37.9317 7.5625 37.5329 7.5625 37.125C7.5625 36.578 7.3452 36.0534 6.95841 35.6666C6.57161 35.2798 6.04701 35.0625 5.5 35.0625ZM5.5 37.8125C5.36403 37.8125 5.23111 37.7722 5.11805 37.6966C5.00499 37.6211 4.91687 37.5137 4.86483 37.3881C4.8128 37.2625 4.79918 37.1242 4.82571 36.9909C4.85224 36.8575 4.91772 36.735 5.01386 36.6389C5.11001 36.5427 5.23251 36.4772 5.36588 36.4507C5.49924 36.4242 5.63747 36.4378 5.7631 36.4898C5.88872 36.5419 5.99609 36.63 6.07164 36.743C6.14718 36.8561 6.1875 36.989 6.1875 37.125C6.1875 37.3073 6.11507 37.4822 5.98614 37.6111C5.85721 37.7401 5.68234 37.8125 5.5 37.8125Z" fill="#FE5800"/>
<path d="M11 35.0625C10.5921 35.0625 10.1933 35.1835 9.85414 35.4101C9.51496 35.6367 9.25061 35.9588 9.0945 36.3357C8.93839 36.7126 8.89755 37.1273 8.97713 37.5274C9.05671 37.9275 9.25315 38.295 9.54159 38.5834C9.83004 38.8719 10.1975 39.0683 10.5976 39.1479C10.9977 39.2275 11.4124 39.1866 11.7893 39.0305C12.1662 38.8744 12.4883 38.61 12.7149 38.2709C12.9415 37.9317 13.0625 37.5329 13.0625 37.125C13.0625 36.578 12.8452 36.0534 12.4584 35.6666C12.0716 35.2798 11.547 35.0625 11 35.0625ZM11 37.8125C10.864 37.8125 10.7311 37.7722 10.618 37.6966C10.505 37.6211 10.4169 37.5137 10.3648 37.3881C10.3128 37.2625 10.2992 37.1242 10.3257 36.9909C10.3522 36.8575 10.4177 36.735 10.5139 36.6389C10.61 36.5427 10.7325 36.4772 10.8659 36.4507C10.9992 36.4242 11.1375 36.4378 11.2631 36.4898C11.3887 36.5419 11.4961 36.63 11.5716 36.743C11.6472 36.8561 11.6875 36.989 11.6875 37.125C11.6875 37.3073 11.6151 37.4822 11.4861 37.6111C11.3572 37.7401 11.1823 37.8125 11 37.8125Z" fill="#FE5800"/>
<path d="M16.5 35.0625C16.0921 35.0625 15.6933 35.1835 15.3541 35.4101C15.015 35.6367 14.7506 35.9588 14.5945 36.3357C14.4384 36.7126 14.3975 37.1273 14.4771 37.5274C14.5567 37.9275 14.7531 38.295 15.0416 38.5834C15.33 38.8719 15.6975 39.0683 16.0976 39.1479C16.4977 39.2275 16.9124 39.1866 17.2893 39.0305C17.6662 38.8744 17.9883 38.61 18.2149 38.2709C18.4415 37.9317 18.5625 37.5329 18.5625 37.125C18.5625 36.578 18.3452 36.0534 17.9584 35.6666C17.5716 35.2798 17.047 35.0625 16.5 35.0625ZM16.5 37.8125C16.364 37.8125 16.2311 37.7722 16.118 37.6966C16.005 37.6211 15.9169 37.5137 15.8648 37.3881C15.8128 37.2625 15.7992 37.1242 15.8257 36.9909C15.8522 36.8575 15.9177 36.735 16.0139 36.6389C16.11 36.5427 16.2325 36.4772 16.3659 36.4507C16.4992 36.4242 16.6375 36.4378 16.7631 36.4898C16.8887 36.5419 16.9961 36.63 17.0716 36.743C17.1472 36.8561 17.1875 36.989 17.1875 37.125C17.1875 37.3073 17.1151 37.4822 16.9861 37.6111C16.8572 37.7401 16.6823 37.8125 16.5 37.8125Z" fill="#FE5800"/>
<path d="M22 35.0625C21.5921 35.0625 21.1933 35.1835 20.8541 35.4101C20.515 35.6367 20.2506 35.9588 20.0945 36.3357C19.9384 36.7126 19.8975 37.1273 19.9771 37.5274C20.0567 37.9275 20.2531 38.295 20.5416 38.5834C20.83 38.8719 21.1975 39.0683 21.5976 39.1479C21.9977 39.2275 22.4124 39.1866 22.7893 39.0305C23.1662 38.8744 23.4883 38.61 23.7149 38.2709C23.9415 37.9317 24.0625 37.5329 24.0625 37.125C24.0625 36.578 23.8452 36.0534 23.4584 35.6666C23.0716 35.2798 22.547 35.0625 22 35.0625ZM22 37.8125C21.864 37.8125 21.7311 37.7722 21.618 37.6966C21.505 37.6211 21.4169 37.5137 21.3648 37.3881C21.3128 37.2625 21.2992 37.1242 21.3257 36.9909C21.3522 36.8575 21.4177 36.735 21.5139 36.6389C21.61 36.5427 21.7325 36.4772 21.8659 36.4507C21.9992 36.4242 22.1375 36.4378 22.2631 36.4898C22.3887 36.5419 22.4961 36.63 22.5716 36.743C22.6472 36.8561 22.6875 36.989 22.6875 37.125C22.6875 37.3073 22.6151 37.4822 22.4861 37.6111C22.3572 37.7401 22.1823 37.8125 22 37.8125Z" fill="#FE5800"/>
<path d="M27.5 35.0625C27.0921 35.0625 26.6933 35.1835 26.3541 35.4101C26.015 35.6367 25.7506 35.9588 25.5945 36.3357C25.4384 36.7126 25.3975 37.1273 25.4771 37.5274C25.5567 37.9275 25.7531 38.295 26.0416 38.5834C26.33 38.8719 26.6975 39.0683 27.0976 39.1479C27.4977 39.2275 27.9124 39.1866 28.2893 39.0305C28.6662 38.8744 28.9883 38.61 29.2149 38.2709C29.4415 37.9317 29.5625 37.5329 29.5625 37.125C29.5625 36.578 29.3452 36.0534 28.9584 35.6666C28.5716 35.2798 28.047 35.0625 27.5 35.0625ZM27.5 37.8125C27.364 37.8125 27.2311 37.7722 27.118 37.6966C27.005 37.6211 26.9169 37.5137 26.8648 37.3881C26.8128 37.2625 26.7992 37.1242 26.8257 36.9909C26.8522 36.8575 26.9177 36.735 27.0139 36.6389C27.11 36.5427 27.2325 36.4772 27.3659 36.4507C27.4992 36.4242 27.6375 36.4378 27.7631 36.4898C27.8887 36.5419 27.9961 36.63 28.0716 36.743C28.1472 36.8561 28.1875 36.989 28.1875 37.125C28.1875 37.3073 28.1151 37.4822 27.9861 37.6111C27.8572 37.7401 27.6823 37.8125 27.5 37.8125Z" fill="#FE5800"/>
<path d="M33 35.0625C32.5921 35.0625 32.1933 35.1835 31.8541 35.4101C31.515 35.6367 31.2506 35.9588 31.0945 36.3357C30.9384 36.7126 30.8975 37.1273 30.9771 37.5274C31.0567 37.9275 31.2531 38.295 31.5416 38.5834C31.83 38.8719 32.1975 39.0683 32.5976 39.1479C32.9977 39.2275 33.4124 39.1866 33.7893 39.0305C34.1662 38.8744 34.4883 38.61 34.7149 38.2709C34.9415 37.9317 35.0625 37.5329 35.0625 37.125C35.0625 36.578 34.8452 36.0534 34.4584 35.6666C34.0716 35.2798 33.547 35.0625 33 35.0625ZM33 37.8125C32.864 37.8125 32.7311 37.7722 32.618 37.6966C32.505 37.6211 32.4169 37.5137 32.3648 37.3881C32.3128 37.2625 32.2992 37.1242 32.3257 36.9909C32.3522 36.8575 32.4177 36.735 32.5139 36.6389C32.61 36.5427 32.7325 36.4772 32.8659 36.4507C32.9992 36.4242 33.1375 36.4378 33.2631 36.4898C33.3887 36.5419 33.4961 36.63 33.5716 36.743C33.6472 36.8561 33.6875 36.989 33.6875 37.125C33.6875 37.3073 33.6151 37.4822 33.4861 37.6111C33.3572 37.7401 33.1823 37.8125 33 37.8125Z" fill="#FE5800"/>
<path d="M38.5 35.0625C38.0921 35.0625 37.6933 35.1835 37.3541 35.4101C37.015 35.6367 36.7506 35.9588 36.5945 36.3357C36.4384 36.7126 36.3975 37.1273 36.4771 37.5274C36.5567 37.9275 36.7531 38.295 37.0416 38.5834C37.33 38.8719 37.6975 39.0683 38.0976 39.1479C38.4977 39.2275 38.9124 39.1866 39.2893 39.0305C39.6662 38.8744 39.9883 38.61 40.2149 38.2709C40.4415 37.9317 40.5625 37.5329 40.5625 37.125C40.5625 36.578 40.3452 36.0534 39.9584 35.6666C39.5716 35.2798 39.047 35.0625 38.5 35.0625ZM38.5 37.8125C38.364 37.8125 38.2311 37.7722 38.118 37.6966C38.005 37.6211 37.9169 37.5137 37.8648 37.3881C37.8128 37.2625 37.7992 37.1242 37.8257 36.9909C37.8522 36.8575 37.9177 36.735 38.0139 36.6389C38.11 36.5427 38.2325 36.4772 38.3659 36.4507C38.4992 36.4242 38.6375 36.4378 38.7631 36.4898C38.8887 36.5419 38.9961 36.63 39.0716 36.743C39.1472 36.8561 39.1875 36.989 39.1875 37.125C39.1875 37.3073 39.1151 37.4822 38.9861 37.6111C38.8572 37.7401 38.6823 37.8125 38.5 37.8125Z" fill="#FE5800"/>
<path d="M17.875 30.25H16.5C16.3177 30.25 16.1428 30.3224 16.0139 30.4514C15.8849 30.5803 15.8125 30.7552 15.8125 30.9375C15.8125 31.1198 15.8849 31.2947 16.0139 31.4236C16.1428 31.5526 16.3177 31.625 16.5 31.625H17.875C18.0573 31.625 18.2322 31.5526 18.3611 31.4236C18.4901 31.2947 18.5625 31.1198 18.5625 30.9375C18.5625 30.7552 18.4901 30.5803 18.3611 30.4514C18.2322 30.3224 18.0573 30.25 17.875 30.25Z" fill="#FE5800"/>
<path d="M34.375 30.25H33C32.8177 30.25 32.6428 30.3224 32.5139 30.4514C32.3849 30.5803 32.3125 30.7552 32.3125 30.9375C32.3125 31.1198 32.3849 31.2947 32.5139 31.4236C32.6428 31.5526 32.8177 31.625 33 31.625H34.375C34.5573 31.625 34.7322 31.5526 34.8611 31.4236C34.9901 31.2947 35.0625 31.1198 35.0625 30.9375C35.0625 30.7552 34.9901 30.5803 34.8611 30.4514C34.7322 30.3224 34.5573 30.25 34.375 30.25Z" fill="#FE5800"/>
</g>
<defs>
<clipPath id="clip0_1019_7249">
<rect width="44" height="44" fill="white"/>
</clipPath>
</defs>
</svg>
