<svg width="44" height="44" viewBox="0 0 44 44" fill="none" xmlns="http://www.w3.org/2000/svg">
<path fill-rule="evenodd" clip-rule="evenodd" d="M33.8999 20.7828H16.5203V16.214H18.5C18.7078 16.214 18.8843 16.0718 18.9343 15.8796L19.4874 14.3093L21.0484 18.4685C21.1343 18.6998 21.3921 18.8185 21.6234 18.731C21.7624 18.6794 21.8671 18.5623 21.903 18.4185L23.2906 12.8513L24.6171 18.3761C24.6749 18.6167 24.9156 18.7652 25.1562 18.7074C25.3203 18.6683 25.4421 18.5449 25.4843 18.3933L26.1593 16.0074L26.8062 17.7574C26.8921 17.9902 27.15 18.1089 27.3812 18.0246C27.5296 17.9699 27.6328 17.8433 27.6656 17.6996L28.0953 16.212H29.6906C29.8765 16.7355 30.3765 17.1105 30.9609 17.1105C31.5468 17.1105 32.0468 16.7355 32.2312 16.212H33.8953V20.7808L33.8999 20.7828ZM19.0515 12.8516C19.1327 12.6172 19.389 12.4954 19.6218 12.5766C19.7577 12.6235 19.8577 12.7313 19.8999 12.8578L21.3812 16.8094L22.864 10.8642C22.9233 10.6236 23.1655 10.4767 23.4062 10.5361C23.5843 10.5798 23.7108 10.7251 23.7405 10.8939L25.0874 16.5063L25.6718 14.4438C25.739 14.2048 25.9858 14.0657 26.2249 14.1329C26.3686 14.1735 26.4765 14.2798 26.5249 14.4094L27.178 16.1735L27.3327 15.6407C27.3889 15.4454 27.5686 15.3157 27.7624 15.3157H29.6936C29.8796 14.7923 30.3795 14.4173 30.9639 14.4173C31.5499 14.4173 32.0499 14.7923 32.2343 15.3157H33.8983V8.05013H17.9047C17.1423 8.05013 16.5188 8.67357 16.5188 9.43605V15.3156H18.1813L19.0485 12.8516L19.0515 12.8516ZM37.1139 23.1376C37.1342 23.1579 37.1529 23.1782 37.1701 23.1985C37.4061 22.9501 37.5514 22.6142 37.5514 22.247V21.6829H35.6498C35.6795 21.7063 35.7076 21.7329 35.7342 21.7595L37.1123 23.1376L37.1139 23.1376ZM17.9059 23.6314H31.5607L31.6716 23.5204C32.056 23.136 32.645 23.0767 33.0919 23.3423L33.2263 23.2079C33.1966 22.8751 33.3091 22.5329 33.5638 22.2798L34.0857 21.7579C34.1122 21.7314 34.1419 21.7048 34.1701 21.6814H16.5217V22.2454C16.5217 23.0079 17.1451 23.6314 17.9076 23.6314H17.9059ZM21.7152 27.4376V27.9095H27.2824L28.6778 26.5142H22.6386C22.1292 26.5142 21.7136 26.9298 21.7136 27.4392L21.7152 27.4376ZM25.4059 24.5298V25.6142H28.6668V24.5298H25.4059ZM37.5511 20.7829H34.798V8.05012H36.1652C36.9276 8.05012 37.5511 8.67356 37.5511 9.43604V20.7829ZM36.6245 18.3236H35.7261V19.1892H36.6245V18.3236ZM36.6245 15.5798H35.7261V16.4454H36.6245V15.5798ZM36.6245 12.836H35.7261V13.7017H36.6245V12.836ZM36.6245 10.0923H35.7261V10.9579H36.6245V10.0923ZM8.65891 31.6891C7.49483 31.6891 6.54171 30.736 6.54171 29.5719V17.2079C6.2339 17.1438 5.99951 16.8688 5.99951 16.5422C5.99951 16.1688 6.30576 15.8626 6.67919 15.8626H10.6386C11.012 15.8626 11.3182 16.1688 11.3182 16.5422C11.3182 16.8688 11.0839 17.1438 10.776 17.2079V29.5719C10.776 30.736 9.82299 31.6891 8.65891 31.6891ZM9.87767 24.0127V17.2219H7.44015V18.1016H7.84639C8.09483 18.1016 8.29483 18.3031 8.29483 18.55C8.29483 18.7984 8.09327 18.9984 7.84639 18.9984H7.44015V19.7297H7.84639C8.09327 19.7297 8.29327 19.9297 8.29327 20.1766C8.29327 20.4234 8.09327 20.6234 7.84639 20.6234H7.44015V20.6625V21.3578H7.84639C8.09327 21.3578 8.29327 21.5578 8.29327 21.8047C8.29327 22.0516 8.09327 22.2516 7.84639 22.2516H7.44015V22.6188V23.2079C8.23235 23.3438 8.85891 24.0157 9.87767 24.0079V24.0127ZM8.51047 14.4207C8.71204 14.5644 8.99171 14.5191 9.13703 14.3176C9.86827 13.2957 10.7324 12.3785 11.7042 11.5926C12.6683 10.8113 13.7418 10.1566 14.8949 9.65348C15.1214 9.55504 15.2246 9.29098 15.1261 9.0644C15.0277 8.83782 14.7636 8.73471 14.537 8.83315C13.3089 9.36907 12.1667 10.0659 11.1402 10.8988C10.1026 11.7394 9.18392 12.7144 8.40892 13.7957C8.26517 13.9972 8.31048 14.2769 8.51204 14.4222L8.51047 14.4207ZM20.4449 36.2927C18.609 36.2927 16.859 35.938 15.2589 35.2942C13.5948 34.6239 12.0901 33.6427 10.8181 32.4192C10.6399 32.2474 10.3556 32.2536 10.1837 32.4317C10.0118 32.6099 10.0181 32.8942 10.1962 33.0661C11.5509 34.3677 13.1525 35.413 14.9242 36.127C16.632 36.8145 18.4945 37.1927 20.4446 37.1927C20.693 37.1927 20.8931 36.9911 20.8931 36.7442C20.8931 36.4958 20.6915 36.2958 20.4446 36.2958L20.4449 36.2927ZM33.2637 35.2786L34.2074 36.4645C35.1871 35.5676 35.8028 34.277 35.8028 32.8442C35.8028 31.2192 35.0121 29.7786 33.795 28.8864C33.8075 28.9708 33.8153 29.0567 33.8153 29.1442C33.8153 29.6692 33.5731 30.138 33.1949 30.4458C33.8262 31.0505 34.2184 31.902 34.2184 32.8442C34.2184 33.7754 33.834 34.6177 33.2168 35.2208C33.2325 35.2395 33.248 35.2583 33.2637 35.2786ZM27.8401 32.5989L28.3135 32.1255L26.7463 30.5583L26.2729 31.0317C26.1901 31.1145 26.1901 31.2505 26.2729 31.3333L27.5385 32.5989C27.6213 32.6817 27.7573 32.6817 27.8401 32.5989ZM34.1965 23.2957L34.3027 23.402L33.7512 23.9535L34.9199 25.1223L35.4715 24.5707L35.5777 24.677C35.6824 24.7817 35.8527 24.7817 35.9574 24.677L36.4793 24.1551C36.584 24.0504 36.584 23.8801 36.4793 23.7754L35.1012 22.3973C34.9965 22.2926 34.8262 22.2926 34.7215 22.3973L34.1996 22.9192C34.0949 23.0239 34.0949 23.1942 34.1996 23.2989L34.1965 23.2957ZM34.7137 26.566C34.8184 26.4614 34.8184 26.291 34.7137 26.1864L32.684 24.1567C32.5793 24.052 32.409 24.052 32.3043 24.1567L27.1511 29.3099C27.0464 29.4146 27.0464 29.5849 27.1511 29.6896L29.1808 31.7192C29.2855 31.8239 29.4558 31.8239 29.5605 31.7192L30.9511 30.3286C30.648 30.0255 30.4605 29.6052 30.4605 29.1427C30.4605 28.2177 31.212 27.4661 32.137 27.4661C32.5995 27.4661 33.0183 27.6536 33.323 27.9568L34.7137 26.566ZM31.359 29.1426C31.359 29.5707 31.709 29.9207 32.1371 29.9207C32.5652 29.9207 32.9152 29.5707 32.9152 29.1426C32.9152 28.7145 32.5652 28.3645 32.1371 28.3645C31.709 28.3645 31.359 28.7145 31.359 29.1426ZM30.5137 15.7646C30.5137 16.013 30.7152 16.213 30.9621 16.213C31.209 16.213 31.4106 16.0115 31.4106 15.7646C31.4106 15.5177 31.209 15.3162 30.9621 15.3162C30.7152 15.3162 30.5137 15.5177 30.5137 15.7646ZM26.1385 38.3614V37.2348H27.2682V36.5614C27.2682 36.3755 27.115 36.2223 26.9291 36.2223H23.5275C23.3416 36.2223 23.1885 36.3755 23.1885 36.5614V37.2348H24.3181V38.3614H26.1385ZM37.9993 39.5005C37.9993 39.7489 37.7977 39.9489 37.5508 39.9489H21.7288C21.4804 39.9489 21.2804 39.7474 21.2804 39.5005C21.2804 39.252 21.482 39.052 21.7288 39.052H29.1116V36.9442C29.1116 35.0208 31.5257 34.5349 32.5601 35.838L35.1163 39.0521H37.5507C37.7991 39.0521 37.9993 39.2536 37.9993 39.5005ZM31.7929 37.0724C31.7929 36.6567 31.4554 36.3177 31.0382 36.3177C30.6226 36.3177 30.2835 36.6552 30.2835 37.0724C30.2835 37.488 30.621 37.827 31.0382 37.827C31.4538 37.827 31.7929 37.4895 31.7929 37.0724Z" fill="#FE5800"/>
</svg>
