<svg width="44" height="44" viewBox="0 0 44 44" fill="none" xmlns="http://www.w3.org/2000/svg">
<path fill-rule="evenodd" clip-rule="evenodd" d="M32.1123 24.3376V20.6907H32.0295C31.7404 20.6907 31.5076 20.4563 31.5076 20.1688C31.5076 19.8798 31.742 19.647 32.0295 19.647H33.2404C33.5295 19.647 33.7623 19.8813 33.7623 20.1688C33.7623 20.4579 33.5279 20.6907 33.2404 20.6907H33.1576V24.3376C32.9857 24.3173 32.8123 24.3064 32.6357 24.3064C32.4592 24.3064 32.2842 24.3173 32.1138 24.3376H32.1123ZM32.592 18.3268C34.3373 18.3268 35.1873 17.1456 35.2764 15.8456C35.3779 14.3549 34.3341 13.4393 34.3732 12.3002C33.856 12.8627 33.8108 13.319 33.6826 14.069C33.5638 12.9378 32.142 12.0596 33.3888 10.7659C30.8795 11.3784 31.7482 13.0096 31.4216 14.0315C31.0763 15.1128 29.6482 14.0096 30.0951 12.8628C28.717 14.1034 29.0779 18.3112 32.592 18.3268ZM27.6012 32.0816V36.6504H28.3356V28.6068C28.3356 28.3943 28.3512 28.1834 28.3824 27.9787H26.3824C25.6793 27.9787 25.1027 28.5537 25.1027 29.2584V30.1271H25.6465C26.7246 30.1271 27.6027 31.0068 27.6027 32.0834L27.6012 32.0816ZM36.2792 28.605C36.2792 26.6004 34.6385 24.9597 32.6339 24.9597C30.6292 24.9597 28.9886 26.6004 28.9886 28.605V36.6486H36.2794L36.2792 28.605ZM11.1228 18.9394L13.0744 10.0254H12.89C12.7119 10.0254 12.5665 9.88013 12.5665 9.702V8.51136C12.5665 8.33324 12.7119 8.18793 12.89 8.18793H19.9088C20.0869 8.18793 20.2322 8.33324 20.2322 8.51136V9.702C20.2322 9.88013 20.0869 10.0254 19.9088 10.0254H19.7244L24.0556 29.8034L22.9978 29.8503L22.2962 26.6472L19.4838 28.2706V27.0675L21.5994 25.8456L19.4697 24.616C19.44 24.1566 19.3603 23.7097 19.2385 23.28L21.8963 24.8144L20.8963 20.2472L18.4994 21.6316C18.3119 21.3347 18.101 21.055 17.8697 20.794L20.39 19.3378L16.401 15.3487L13.1182 18.6315H13.0791C12.3978 18.6315 11.74 18.7394 11.1228 18.9394ZM19.2072 12.5426L17.1384 14.6114L20.3666 17.8395L19.2072 12.5426ZM13.8572 11.3302L16.3994 13.8724L18.9416 11.3302L18.6557 10.0255H14.1433L13.8572 11.3302ZM12.4322 17.8394L15.6603 14.6112L13.5916 12.5425L12.4322 17.8394ZM18.4386 33.8442H7.71979V36.6488H18.4386V33.8442ZM21.8792 30.777C21.162 30.777 20.5761 31.3645 20.5761 32.0801V36.6489H26.9497V32.0801C26.9497 31.3629 26.3622 30.777 25.6466 30.777H21.8792ZM18.4386 32.7988H7.71979V25.9332H9.15571C9.44478 25.9332 9.67759 25.6989 9.67759 25.4114C9.67759 25.1223 9.44322 24.8895 9.15571 24.8895H7.72135C7.79948 22.0098 10.1807 19.6771 13.0794 19.6771C15.9778 19.6771 18.3574 22.0083 18.4374 24.8895H17.003C16.7139 24.8895 16.4811 25.1239 16.4811 25.4114C16.4811 25.7004 16.7155 25.9332 17.003 25.9332H18.4389L18.4386 32.7988ZM14.8605 27.216C14.4198 25.7801 13.3277 24.1942 13.0792 23.741C12.8308 24.1942 11.7386 25.7801 11.298 27.216C10.7511 29.0004 11.9214 29.8942 13.0792 29.9082C14.237 29.8942 15.4074 28.9989 14.8605 27.216ZM36.9401 37.6924L7.05887 37.694C6.47607 37.694 5.99951 38.1706 5.99951 38.7534C5.99951 39.3362 6.47607 39.8127 7.05887 39.8127H36.9401C37.5229 39.8127 37.9994 39.3362 37.9994 38.7534C37.9994 38.1706 37.5229 37.694 36.9401 37.694V37.6924Z" fill="#FE5800"/>
</svg>
