<svg width="38" height="37" viewBox="0 0 38 37" fill="none" xmlns="http://www.w3.org/2000/svg">
<path d="M13.2292 27.6268L4.354 24.1502V30.9782C4.354 31.4907 4.679 31.947 5.16648 32.1157L17.9929 36.4737V23.2657L14.3413 27.3577C14.0616 27.6702 13.621 27.778 13.2272 27.6265L13.2292 27.6268Z" fill="#FE5800"/>
<path d="M37.8602 19.514L33.465 13.95C33.3182 13.7156 33.0994 13.5265 32.8228 13.439L25.8416 11.0594L23.9292 12.9578L28.7044 14.5781L18.9936 17.8781L9.28275 14.5781L14.0736 12.9578L12.1611 11.0594L5.16587 13.439C4.90338 13.5265 4.68463 13.7172 4.53776 13.95L0.126955 19.514C-0.121481 19.8202 0.0097666 20.2874 0.389455 20.4483L12.9191 25.3547C13.1519 25.4422 13.43 25.3844 13.5909 25.1938L18.2501 19.9798C18.6298 19.5423 19.3595 19.5423 19.7392 19.9798L24.4128 25.1938C24.5738 25.3844 24.8363 25.4422 25.0706 25.3547L37.6142 20.4483C37.9939 20.2874 38.1251 19.8202 37.8627 19.514H37.8602Z" fill="#FE5800"/>
<path d="M24.4013 27.694C24.1216 27.694 23.8481 27.5783 23.6528 27.358L19.9966 23.266V36.474L32.8278 32.116C33.3121 31.9473 33.6403 31.491 33.6403 30.9785V24.1505L24.7651 27.6271C24.6448 27.6708 24.5213 27.6958 24.401 27.6958L24.4013 27.694Z" fill="#FE5800"/>
<path d="M22.7151 6.41556V1.00156C22.7151 0.44844 22.2667 0 21.7135 0H16.2807C15.7276 0 15.2792 0.44844 15.2792 1.00156V6.41556H12.8026C11.9073 6.41556 11.462 7.49992 12.0979 8.12964L18.2915 14.2532C18.6822 14.6392 19.3103 14.6392 19.6993 14.2532L25.8929 8.12964C26.5289 7.49996 26.0836 6.41556 25.1882 6.41556H22.7117H22.7151Z" fill="#FE5800"/>
</svg>
