<svg width="20" height="46" viewBox="0 0 20 46" fill="none" xmlns="http://www.w3.org/2000/svg">
<path d="M9.92982 23.6843C11.7851 23.6843 13.5987 23.1345 15.1416 22.1043C16.6846 21.0741 17.8876 19.6098 18.5988 17.8962C19.3099 16.1827 19.4974 14.2969 19.1373 12.4769C18.7773 10.6569 17.886 8.98445 16.576 7.67076C15.2659 6.35706 13.596 5.46107 11.777 5.09594C9.95805 4.73082 8.07168 4.91294 6.35617 5.61931C4.64066 6.32567 3.17296 7.5246 2.13846 9.06465C1.10396 10.6047 0.549061 12.4168 0.54386 14.272C0.541554 15.5065 0.782564 16.7293 1.25311 17.8706C1.72366 19.0119 2.41452 20.0492 3.2862 20.9233C4.15789 21.7975 5.1933 22.4912 6.33325 22.965C7.47321 23.4387 8.69535 23.6832 9.92982 23.6843ZM9.92982 11.8159C10.4208 11.8159 10.9008 11.9615 11.309 12.2343C11.7172 12.507 12.0354 12.8947 12.2233 13.3483C12.4112 13.802 12.4604 14.3011 12.3646 14.7826C12.2688 15.2642 12.0324 15.7065 11.6852 16.0537C11.338 16.4009 10.8957 16.6373 10.4141 16.7331C9.93258 16.8289 9.43344 16.7797 8.97983 16.5918C8.52622 16.4039 8.13851 16.0858 7.86574 15.6775C7.59296 15.2693 7.44737 14.7893 7.44737 14.2983C7.44389 13.9701 7.50553 13.6445 7.62873 13.3403C7.75192 13.036 7.93423 12.7593 8.16509 12.5259C8.39596 12.2926 8.6708 12.1074 8.97371 11.981C9.27663 11.8546 9.6016 11.7895 9.92982 11.7896V11.8159ZM19.8596 29.8247V17.544C19.166 19.629 17.8335 21.4429 16.0513 22.7283C14.269 24.0137 12.1273 24.7054 9.92982 24.7054C7.73238 24.7054 5.59068 24.0137 3.8084 22.7283C2.02611 21.4429 0.693673 19.629 0 17.544L0 29.8247H19.8596ZM14.2719 26.0264H16.4474V28.2018H14.2719V26.0264ZM3.41228 26.0264H5.58772V28.2018H3.41228V26.0264ZM19.8596 30.9124V33.544L9.92982 39.0966L0 33.579V30.9475H5.04386V34.7457H6.14035V30.9562H9.38596V34.7545H10.4737V30.9562H13.7281V34.7545H14.8158V30.9562L19.8596 30.9124Z" fill="#FE5800"/>
<path d="M12.1052 4.38596H7.71924V0H12.1052V4.38596Z" fill="#FE5800"/>
<path d="M5.58818 39.0963L1.2373 45.6139" stroke="#FE5800" stroke-width="1.08772" stroke-miterlimit="10"/>
<path d="M14.272 39.0963L18.6141 45.6139" stroke="#FE5800" stroke-width="1.08772" stroke-miterlimit="10"/>
</svg>
